Coordinates
version=1
nRows=17
nColumns=24
inDegrees=yes

Units are S.I. units (second, meters, Newtons, ...)
Angles are in degrees.

endheader
time	pelvis_tilt	pelvis_list	pelvis_rotation	pelvis_tx	pelvis_ty	pelvis_tz	hip_flexion_r	hip_adduction_r	hip_rotation_r	knee_angle_r	ankle_angle_r	subtalar_angle_r	mtp_angle_r	hip_flexion_l	hip_adduction_l	hip_rotation_l	knee_angle_l	ankle_angle_l	subtalar_angle_l	mtp_angle_l	lumbar_extension	lumbar_bending	lumbar_rotation
      3.96000000	    -13.55014777	      9.28724819	     -2.41446455	     -0.93817797	     -0.03818909	      0.48199843	     12.28747587	    -10.56630151	      4.34561764	    -51.75625918	     -9.52064325	      0.33907999	     15.12929996	     31.26447373	     13.68393286	      4.44008795	    -24.37673587	     -1.88845992	     -5.40436483	      0.57293599	     13.04292606	    -10.70138424	     13.53061847
      3.96500000	    -13.49768477	      9.24525873	     -2.43053731	     -0.93177403	     -0.03703445	      0.48146090	     13.17307964	    -10.56338386	      4.35509492	    -52.62740483	     -9.18971991	     -0.11593923	     15.10676796	     30.59540536	     13.74793197	      4.64450851	    -24.05722040	     -1.72129665	     -5.63714263	      0.37506224	     12.95739763	    -10.62500427	     13.36768948
      3.97000000	    -13.44370494	      9.18981515	     -2.44016256	     -0.92530921	     -0.03585576	      0.48093585	     14.04085991	    -10.54263222	      4.36159502	    -53.41642950	     -8.83401803	     -0.40380757	     15.18735387	     29.89213181	     13.80088298	      4.91488080	    -23.69765147	     -1.51650801	     -5.82511356	      0.20902117	     12.88623285	    -10.53846789	     13.20769211
      3.97500000	    -13.39978287	      9.11451196	     -2.43793572	     -0.91894418	     -0.03469457	      0.48036970	     14.92079064	    -10.49461753	      4.36320951	    -54.14741761	     -8.44766681	     -0.59627170	     15.33698641	     29.20640816	     13.84527336	      5.20624506	    -23.34669624	     -1.35732170	     -6.08674835	     -0.07140442	     12.80818013	    -10.42946149	     13.02119308
      3.98000000	    -13.35214122	      9.02891577	     -2.41620311	     -0.91264383	     -0.03354875	      0.47974494	     15.79019935	    -10.43425188	      4.35778877	    -54.81607929	     -8.03246490	     -0.69686828	     15.58443093	     28.52037577	     13.88838093	      5.50097046	    -23.00224376	     -1.19386196	     -6.32965056	     -0.41877217	     12.71098497	    -10.30516039	     12.80281765
      3.98500000	    -13.29799713	      8.92098131	     -2.40760221	     -0.90627636	     -0.03237972	      0.47920431	     16.64221475	    -10.33000389	      4.35897665	    -55.40993966	     -7.68802929	     -0.78062383	     15.81645174	     27.79875279	     13.88711723	      5.80479994	    -22.61512168	     -0.98733237	     -6.48559812	     -0.62635841	     12.62806432	    -10.16441284	     12.62328754
      3.99000000	    -13.25298634	      8.81185651	     -2.35254649	     -0.90004487	     -0.03126765	      0.47854150	     17.49752112	    -10.23385299	      4.33354384	    -55.95080440	     -7.28827463	     -0.78646138	     16.17991117	     27.10591058	     13.91186295	      6.12752877	    -22.25406626	     -0.83974104	     -6.71081591	     -0.98680407	     12.52187721	    -10.02564052	     12.35941632
      3.99500000	    -13.19372459	      8.70310711	     -2.35026961	     -0.89378711	     -0.03012459	      0.47807465	     18.34756620	    -10.09052412	      4.36169301	    -56.43676051	     -6.99432386	     -0.89927893	     16.34027392	     26.37833885	     13.87615622	      6.34870005	    -21.83351433	     -0.65789138	     -6.74955696	     -1.05508065	     12.42510800	     -9.88931791	     12.15939320
      4.00000000	    -13.15165515	      8.55129746	     -2.24399614	     -0.88750861	     -0.02905148	      0.47731638	     19.17045184	     -9.95998989	      4.27479540	    -56.84497961	     -6.64197299	     -0.79426850	     16.72095182	     25.65566658	     13.86620485	      6.72062207	    -21.42974504	     -0.47829215	     -6.92740334	     -1.31947521	     12.32849398	     -9.71369379	     11.90432725
      4.00500000	    -13.07734864	      8.43182363	     -2.14775165	     -0.88132179	     -0.02796741	      0.47662730	     19.96156108	     -9.84293901	      4.21940323	    -57.18829183	     -6.32341333	     -0.80103809	     17.18290765	     24.90764366	     13.86570215	      7.00240578	    -21.01534103	     -0.31047533	     -7.00860769	     -1.60963412	     12.18678116	     -9.57697758	     11.58466206
      4.01000000	    -13.00553973	      8.28547362	     -2.06443154	     -0.87510439	     -0.02689013	      0.47600694	     20.74662976	     -9.67766986	      4.17049822	    -57.47002302	     -6.07227989	     -0.84080122	     17.53191086	     24.14771328	     13.80874604	      7.24246421	    -20.56978064	     -0.10487830	     -6.98258037	     -1.72353188	     12.05892009	     -9.41453353	     11.31991994
      4.01500000	    -12.93598597	      8.14399944	     -1.96546007	     -0.86891470	     -0.02584862	      0.47538128	     21.52767541	     -9.52075434	      4.10016844	    -57.70103917	     -5.81626768	     -0.87257030	     17.80481638	     23.38656061	     13.75031433	      7.46629279	    -20.10425721	      0.07038844	     -6.93529737	     -1.75190664	     11.93165275	     -9.26112539	     11.05168056
      4.02000000	    -12.87500005	      8.00560422	     -1.87132224	     -0.86274087	     -0.02485477	      0.47476832	     22.31914575	     -9.36209197	      4.03184465	    -57.88700259	     -5.57707513	     -0.90087253	     17.99035015	     22.62935915	     13.68217314	      7.68424369	    -19.62044716	      0.24287027	     -6.86678334	     -1.72336896	     11.81692371	     -9.11128735	     10.82275184
      4.02500000	    -12.79591326	      7.84328441	     -1.74749419	     -0.85658293	     -0.02385872	      0.47413764	     23.06171295	     -9.18936873	      3.92606175	    -57.99501434	     -5.31629750	     -0.90446742	     18.19234769	     21.85117337	     13.59302884	      7.90859898	    -19.13515471	      0.40460206	     -6.77379379	     -1.65821994	     11.67414989	     -8.94577837	     10.52387004
      4.03000000	    -12.70409624	      7.67226348	     -1.62124294	     -0.85044046	     -0.02287340	      0.47351979	     23.77652045	     -9.01006515	      3.80384214	    -58.03581574	     -5.06410026	     -0.91853864	     18.38155918	     21.05889092	     13.48895595	      8.12800825	    -18.64357366	      0.55357531	     -6.67831445	     -1.56666108	     11.51760815	     -8.77253802	     10.22700290
      4.03500000	    -12.61164818	      7.49401821	     -1.49842308	     -0.84431524	     -0.02191824	      0.47290436	     24.47996711	     -8.82379489	      3.67592406	    -58.01399744	     -4.81463826	     -0.93316815	     18.54329231	     20.26783281	     13.37148500	      8.34831685	    -18.14948146	      0.69040171	     -6.59220693	     -1.46507651	     11.35907789	     -8.58818122	      9.93760063
      4.04000000	    -12.51746292	      7.30644195	     -1.37585607	     -0.83821711	     -0.02099451	      0.47233512	     25.16970339	     -8.62933519	      3.53144327	    -57.93023702	     -4.56268335	     -0.93726451	     18.67671019	     19.48289554	     13.23820116	      8.57032050	    -17.66534202	      0.81483590	     -6.52827174	     -1.36836035	     11.20041632	     -8.40198631	      9.65038177
